<svg height="32" viewBox="0 0 32 32" width="32" xmlns="http://www.w3.org/2000/svg" xmlns:xlink="http://www.w3.org/1999/xlink"><defs><filter id="a" height="111.7%" width="111.7%" x="-5.8%" y="-4.2%"><feOffset dy=".5" in="SourceAlpha" result="shadowOffsetOuter1"/><feGaussianBlur in="shadowOffsetOuter1" result="shadowBlurOuter1" stdDeviation=".5"/><feComposite in="shadowBlurOuter1" in2="SourceAlpha" operator="out" result="shadowBlurOuter1"/><feColorMatrix in="shadowBlurOuter1" values="0 0 0 0 0 0 0 0 0 0 0 0 0 0 0 0 0 0 0.199473505 0"/></filter><filter id="b" height="119.4%" width="119.4%" x="-9.7%" y="-6.9%"><feOffset dy=".5" in="SourceAlpha" result="shadowOffsetOuter1"/><feGaussianBlur in="shadowOffsetOuter1" result="shadowBlurOuter1" stdDeviation=".5"/><feColorMatrix in="shadowBlurOuter1" result="shadowMatrixOuter1" values="0 0 0 0 0 0 0 0 0 0 0 0 0 0 0 0 0 0 0.204257246 0"/><feMerge><feMergeNode in="shadowMatrixOuter1"/><feMergeNode in="SourceGraphic"/></feMerge></filter><linearGradient id="c" x1="50%" x2="50%" y1="0%" y2="100%"><stop offset="0" stop-color="#fff" stop-opacity=".5"/><stop offset="1" stop-opacity=".5"/></linearGradient><circle id="d" cx="16" cy="15" r="15"/></defs><g fill="none" fill-rule="evenodd"><use fill="#000" filter="url(#a)" xlink:href="#d"/><use fill="#121747" xlink:href="#d"/><use fill="url(#c)" xlink:href="#d"/><circle cx="16" cy="15" r="14.5" stroke="#000" stroke-opacity=".097"/><g fill="#fff" fill-rule="nonzero" filter="url(#b)" transform="translate(7 6)"><path d="m11.032 15.87c0 1.145-.92 2.074-2.056 2.074a2.065 2.065 0 0 1 -2.055-2.075v-13.789a2.064 2.064 0 0 1 2.055-2.074c1.135 0 2.056.929 2.056 2.075v13.79zm-6.92.005a2.072 2.072 0 0 1 -1.015 1.82 2.032 2.032 0 0 1 -2.068 0 2.072 2.072 0 0 1 -1.014-1.82v-3.1a2.072 2.072 0 0 1 1.014-1.82 2.032 2.032 0 0 1 2.068 0 2.072 2.072 0 0 1 1.014 1.82v3.1z"/><path d="m17.956 10.4c0 1.145-.92 2.074-2.056 2.074a2.065 2.065 0 0 1 -2.056-2.075v-5.233c0-1.146.92-2.075 2.056-2.075 1.135 0 2.056.929 2.056 2.075v5.233z" opacity=".5"/></g></g></svg>